<mxfile host="app.diagrams.net" agent="Mozilla/5.0 (Windows NT 10.0; Win64; x64) AppleWebKit/537.36 (KHTML, like Gecko) Chrome/131.0.0.0 Safari/537.36" version="25.0.3">
  <diagram name="Page-1" id="uJWA0XU8A8i6pRbWtTfs">
    <mxGraphModel dx="936" dy="588" grid="1" gridSize="10" guides="1" tooltips="1" connect="1" arrows="1" fold="1" page="1" pageScale="1" pageWidth="850" pageHeight="1100" math="0" shadow="0">
      <root>
        <mxCell id="0" />
        <mxCell id="1" parent="0" />
        <mxCell id="qYzG8PUJJpeO185bwS53-140" value="" style="rounded=1;whiteSpace=wrap;html=1;" parent="1" vertex="1">
          <mxGeometry x="890" y="290" width="160" height="300" as="geometry" />
        </mxCell>
        <mxCell id="qYzG8PUJJpeO185bwS53-11" value="" style="edgeStyle=orthogonalEdgeStyle;rounded=0;orthogonalLoop=1;jettySize=auto;html=1;entryX=0;entryY=0.5;entryDx=0;entryDy=0;" parent="1" target="qYzG8PUJJpeO185bwS53-14" edge="1">
          <mxGeometry relative="1" as="geometry">
            <mxPoint x="110" y="260.0000000000001" as="sourcePoint" />
            <mxPoint x="190.26" y="240.0000000000001" as="targetPoint" />
          </mxGeometry>
        </mxCell>
        <mxCell id="qYzG8PUJJpeO185bwS53-3" value="" style="ellipse;whiteSpace=wrap;html=1;aspect=fixed;fillColor=#f8cecc;strokeColor=#b85450;" parent="1" vertex="1">
          <mxGeometry x="80" y="240" width="40" height="40" as="geometry" />
        </mxCell>
        <mxCell id="qYzG8PUJJpeO185bwS53-12" value="" style="edgeStyle=orthogonalEdgeStyle;rounded=0;orthogonalLoop=1;jettySize=auto;html=1;entryX=0;entryY=0.796;entryDx=0;entryDy=0;entryPerimeter=0;" parent="1" source="qYzG8PUJJpeO185bwS53-5" target="qYzG8PUJJpeO185bwS53-14" edge="1">
          <mxGeometry relative="1" as="geometry">
            <Array as="points" />
          </mxGeometry>
        </mxCell>
        <mxCell id="qYzG8PUJJpeO185bwS53-5" value="" style="ellipse;whiteSpace=wrap;html=1;aspect=fixed;fillColor=#f8cecc;strokeColor=#b85450;" parent="1" vertex="1">
          <mxGeometry x="80" y="320" width="40" height="40" as="geometry" />
        </mxCell>
        <mxCell id="qYzG8PUJJpeO185bwS53-10" value="" style="edgeStyle=orthogonalEdgeStyle;rounded=0;orthogonalLoop=1;jettySize=auto;html=1;entryX=-0.011;entryY=0.204;entryDx=0;entryDy=0;entryPerimeter=0;" parent="1" source="qYzG8PUJJpeO185bwS53-7" target="qYzG8PUJJpeO185bwS53-14" edge="1">
          <mxGeometry relative="1" as="geometry">
            <Array as="points" />
          </mxGeometry>
        </mxCell>
        <mxCell id="qYzG8PUJJpeO185bwS53-7" value="" style="ellipse;whiteSpace=wrap;html=1;aspect=fixed;fillColor=#f8cecc;strokeColor=#b85450;" parent="1" vertex="1">
          <mxGeometry x="80" y="160" width="40" height="40" as="geometry" />
        </mxCell>
        <mxCell id="qYzG8PUJJpeO185bwS53-98" style="edgeStyle=orthogonalEdgeStyle;rounded=0;orthogonalLoop=1;jettySize=auto;html=1;entryX=0;entryY=0.5;entryDx=0;entryDy=0;" parent="1" source="qYzG8PUJJpeO185bwS53-14" target="qYzG8PUJJpeO185bwS53-91" edge="1">
          <mxGeometry relative="1" as="geometry">
            <Array as="points">
              <mxPoint x="330" y="300" />
              <mxPoint x="330" y="300" />
            </Array>
          </mxGeometry>
        </mxCell>
        <mxCell id="qYzG8PUJJpeO185bwS53-14" value="&lt;div&gt;&lt;b&gt;Determine&lt;/b&gt;&lt;/div&gt;&lt;div&gt;&lt;b&gt;Location of TX&lt;/b&gt;&lt;/div&gt;&lt;div&gt;LEFT&lt;/div&gt;&lt;div&gt;MID-LEFT&lt;/div&gt;&lt;div&gt;MID&lt;br&gt;MID-RIGHT&lt;/div&gt;&lt;div&gt;RIGHT&lt;/div&gt;&lt;div&gt;UNKOWN&lt;/div&gt;&lt;div&gt;&lt;br&gt;&lt;/div&gt;" style="rounded=1;whiteSpace=wrap;html=1;fillColor=#fff2cc;strokeColor=#d6b656;" parent="1" vertex="1">
          <mxGeometry x="200" y="125" width="120" height="270" as="geometry" />
        </mxCell>
        <mxCell id="qYzG8PUJJpeO185bwS53-22" value="" style="endArrow=none;html=1;rounded=0;" parent="1" edge="1">
          <mxGeometry width="50" height="50" relative="1" as="geometry">
            <mxPoint x="170" y="340" as="sourcePoint" />
            <mxPoint x="170" y="260" as="targetPoint" />
          </mxGeometry>
        </mxCell>
        <mxCell id="qYzG8PUJJpeO185bwS53-23" value="" style="endArrow=none;html=1;rounded=0;entryX=0.004;entryY=0.168;entryDx=0;entryDy=0;entryPerimeter=0;" parent="1" target="qYzG8PUJJpeO185bwS53-36" edge="1">
          <mxGeometry width="50" height="50" relative="1" as="geometry">
            <mxPoint x="170" y="260" as="sourcePoint" />
            <mxPoint x="170" y="180" as="targetPoint" />
            <Array as="points">
              <mxPoint x="170" y="60" />
            </Array>
          </mxGeometry>
        </mxCell>
        <mxCell id="qYzG8PUJJpeO185bwS53-24" value="" style="endArrow=none;html=1;rounded=0;" parent="1" edge="1">
          <mxGeometry width="50" height="50" relative="1" as="geometry">
            <mxPoint x="180" y="260" as="sourcePoint" />
            <mxPoint x="180" y="180" as="targetPoint" />
          </mxGeometry>
        </mxCell>
        <mxCell id="qYzG8PUJJpeO185bwS53-46" value="" style="edgeStyle=orthogonalEdgeStyle;rounded=0;orthogonalLoop=1;jettySize=auto;html=1;entryX=0;entryY=0.5;entryDx=0;entryDy=0;" parent="1" source="qYzG8PUJJpeO185bwS53-36" target="qYzG8PUJJpeO185bwS53-40" edge="1">
          <mxGeometry relative="1" as="geometry" />
        </mxCell>
        <mxCell id="qYzG8PUJJpeO185bwS53-36" value="&lt;b&gt;ADC Sample 1 OR 0&lt;/b&gt;" style="rounded=1;whiteSpace=wrap;html=1;fillColor=#dae8fc;strokeColor=#6c8ebf;" parent="1" vertex="1">
          <mxGeometry x="330" y="50" width="120" height="60" as="geometry" />
        </mxCell>
        <mxCell id="qYzG8PUJJpeO185bwS53-38" value="" style="endArrow=none;html=1;rounded=0;" parent="1" edge="1">
          <mxGeometry width="50" height="50" relative="1" as="geometry">
            <mxPoint x="180" y="180" as="sourcePoint" />
            <mxPoint x="330" y="80" as="targetPoint" />
            <Array as="points">
              <mxPoint x="180" y="80" />
            </Array>
          </mxGeometry>
        </mxCell>
        <mxCell id="qYzG8PUJJpeO185bwS53-39" value="" style="endArrow=none;html=1;rounded=0;" parent="1" edge="1">
          <mxGeometry width="50" height="50" relative="1" as="geometry">
            <mxPoint x="190" y="180" as="sourcePoint" />
            <mxPoint x="330" y="100" as="targetPoint" />
            <Array as="points">
              <mxPoint x="190" y="100" />
            </Array>
          </mxGeometry>
        </mxCell>
        <mxCell id="qYzG8PUJJpeO185bwS53-40" value="1" style="rounded=0;whiteSpace=wrap;html=1;" parent="1" vertex="1">
          <mxGeometry x="590" y="67.5" width="30" height="25" as="geometry" />
        </mxCell>
        <mxCell id="qYzG8PUJJpeO185bwS53-41" value="1" style="rounded=0;whiteSpace=wrap;html=1;" parent="1" vertex="1">
          <mxGeometry x="620" y="67.5" width="30" height="25" as="geometry" />
        </mxCell>
        <mxCell id="qYzG8PUJJpeO185bwS53-43" value="1" style="rounded=0;whiteSpace=wrap;html=1;" parent="1" vertex="1">
          <mxGeometry x="650" y="67.5" width="30" height="25" as="geometry" />
        </mxCell>
        <mxCell id="qYzG8PUJJpeO185bwS53-44" value="0" style="rounded=0;whiteSpace=wrap;html=1;" parent="1" vertex="1">
          <mxGeometry x="680" y="67.5" width="30" height="25" as="geometry" />
        </mxCell>
        <mxCell id="qYzG8PUJJpeO185bwS53-48" value="" style="edgeStyle=orthogonalEdgeStyle;rounded=0;orthogonalLoop=1;jettySize=auto;html=1;" parent="1" source="qYzG8PUJJpeO185bwS53-45" target="qYzG8PUJJpeO185bwS53-47" edge="1">
          <mxGeometry relative="1" as="geometry" />
        </mxCell>
        <mxCell id="qYzG8PUJJpeO185bwS53-45" value="0" style="rounded=0;whiteSpace=wrap;html=1;" parent="1" vertex="1">
          <mxGeometry x="710" y="67.5" width="30" height="25" as="geometry" />
        </mxCell>
        <mxCell id="qYzG8PUJJpeO185bwS53-73" style="edgeStyle=orthogonalEdgeStyle;rounded=0;orthogonalLoop=1;jettySize=auto;html=1;entryX=0.5;entryY=0;entryDx=0;entryDy=0;" parent="1" source="qYzG8PUJJpeO185bwS53-47" target="qYzG8PUJJpeO185bwS53-56" edge="1">
          <mxGeometry relative="1" as="geometry">
            <Array as="points">
              <mxPoint x="720" y="130" />
              <mxPoint x="395" y="130" />
            </Array>
          </mxGeometry>
        </mxCell>
        <mxCell id="qYzG8PUJJpeO185bwS53-74" style="edgeStyle=orthogonalEdgeStyle;rounded=0;orthogonalLoop=1;jettySize=auto;html=1;entryX=0.5;entryY=0;entryDx=0;entryDy=0;" parent="1" source="qYzG8PUJJpeO185bwS53-47" target="qYzG8PUJJpeO185bwS53-57" edge="1">
          <mxGeometry relative="1" as="geometry">
            <Array as="points">
              <mxPoint x="720" y="130" />
              <mxPoint x="425" y="130" />
            </Array>
          </mxGeometry>
        </mxCell>
        <mxCell id="qYzG8PUJJpeO185bwS53-75" style="edgeStyle=orthogonalEdgeStyle;rounded=0;orthogonalLoop=1;jettySize=auto;html=1;entryX=0.5;entryY=0;entryDx=0;entryDy=0;" parent="1" source="qYzG8PUJJpeO185bwS53-47" target="qYzG8PUJJpeO185bwS53-58" edge="1">
          <mxGeometry relative="1" as="geometry">
            <Array as="points">
              <mxPoint x="720" y="130" />
              <mxPoint x="455" y="130" />
            </Array>
          </mxGeometry>
        </mxCell>
        <mxCell id="qYzG8PUJJpeO185bwS53-76" style="edgeStyle=orthogonalEdgeStyle;rounded=0;orthogonalLoop=1;jettySize=auto;html=1;entryX=0.5;entryY=0;entryDx=0;entryDy=0;" parent="1" source="qYzG8PUJJpeO185bwS53-47" target="qYzG8PUJJpeO185bwS53-59" edge="1">
          <mxGeometry relative="1" as="geometry">
            <Array as="points">
              <mxPoint x="720" y="130" />
              <mxPoint x="485" y="130" />
            </Array>
          </mxGeometry>
        </mxCell>
        <mxCell id="qYzG8PUJJpeO185bwS53-77" style="edgeStyle=orthogonalEdgeStyle;rounded=0;orthogonalLoop=1;jettySize=auto;html=1;entryX=0.5;entryY=0;entryDx=0;entryDy=0;" parent="1" source="qYzG8PUJJpeO185bwS53-47" target="qYzG8PUJJpeO185bwS53-61" edge="1">
          <mxGeometry relative="1" as="geometry">
            <Array as="points">
              <mxPoint x="720" y="130" />
              <mxPoint x="515" y="130" />
            </Array>
          </mxGeometry>
        </mxCell>
        <mxCell id="qYzG8PUJJpeO185bwS53-79" style="edgeStyle=orthogonalEdgeStyle;rounded=0;orthogonalLoop=1;jettySize=auto;html=1;entryX=0.5;entryY=0;entryDx=0;entryDy=0;" parent="1" source="qYzG8PUJJpeO185bwS53-47" target="qYzG8PUJJpeO185bwS53-62" edge="1">
          <mxGeometry relative="1" as="geometry">
            <Array as="points">
              <mxPoint x="720" y="130" />
              <mxPoint x="545" y="130" />
            </Array>
          </mxGeometry>
        </mxCell>
        <mxCell id="qYzG8PUJJpeO185bwS53-80" style="edgeStyle=orthogonalEdgeStyle;rounded=0;orthogonalLoop=1;jettySize=auto;html=1;entryX=0.5;entryY=0;entryDx=0;entryDy=0;" parent="1" source="qYzG8PUJJpeO185bwS53-47" target="qYzG8PUJJpeO185bwS53-63" edge="1">
          <mxGeometry relative="1" as="geometry">
            <Array as="points">
              <mxPoint x="720" y="130" />
              <mxPoint x="575" y="130" />
            </Array>
          </mxGeometry>
        </mxCell>
        <mxCell id="qYzG8PUJJpeO185bwS53-81" style="edgeStyle=orthogonalEdgeStyle;rounded=0;orthogonalLoop=1;jettySize=auto;html=1;entryX=0.5;entryY=0;entryDx=0;entryDy=0;" parent="1" source="qYzG8PUJJpeO185bwS53-47" target="qYzG8PUJJpeO185bwS53-64" edge="1">
          <mxGeometry relative="1" as="geometry">
            <Array as="points">
              <mxPoint x="720" y="130" />
              <mxPoint x="605" y="130" />
            </Array>
          </mxGeometry>
        </mxCell>
        <mxCell id="qYzG8PUJJpeO185bwS53-82" style="edgeStyle=orthogonalEdgeStyle;rounded=0;orthogonalLoop=1;jettySize=auto;html=1;entryX=0.5;entryY=0;entryDx=0;entryDy=0;" parent="1" source="qYzG8PUJJpeO185bwS53-47" target="qYzG8PUJJpeO185bwS53-65" edge="1">
          <mxGeometry relative="1" as="geometry" />
        </mxCell>
        <mxCell id="qYzG8PUJJpeO185bwS53-84" style="edgeStyle=orthogonalEdgeStyle;rounded=0;orthogonalLoop=1;jettySize=auto;html=1;entryX=0.5;entryY=0;entryDx=0;entryDy=0;" parent="1" source="qYzG8PUJJpeO185bwS53-47" target="qYzG8PUJJpeO185bwS53-66" edge="1">
          <mxGeometry relative="1" as="geometry" />
        </mxCell>
        <mxCell id="qYzG8PUJJpeO185bwS53-47" value="&lt;b&gt;Bit Vote&lt;/b&gt;&lt;div&gt;&lt;b&gt;5 Samples = 1 Bit&lt;/b&gt;&lt;/div&gt;" style="rounded=1;whiteSpace=wrap;html=1;fillColor=#dae8fc;strokeColor=#6c8ebf;" parent="1" vertex="1">
          <mxGeometry x="770" y="50" width="120" height="60" as="geometry" />
        </mxCell>
        <mxCell id="qYzG8PUJJpeO185bwS53-55" value="1" style="rounded=0;whiteSpace=wrap;html=1;" parent="1" vertex="1">
          <mxGeometry x="450" y="150" width="30" height="25" as="geometry" />
        </mxCell>
        <mxCell id="qYzG8PUJJpeO185bwS53-56" value="1" style="rounded=0;whiteSpace=wrap;html=1;" parent="1" vertex="1">
          <mxGeometry x="479" y="150" width="30" height="25" as="geometry" />
        </mxCell>
        <mxCell id="qYzG8PUJJpeO185bwS53-57" value="1" style="rounded=0;whiteSpace=wrap;html=1;" parent="1" vertex="1">
          <mxGeometry x="509" y="150" width="30" height="25" as="geometry" />
        </mxCell>
        <mxCell id="qYzG8PUJJpeO185bwS53-58" value="1" style="rounded=0;whiteSpace=wrap;html=1;" parent="1" vertex="1">
          <mxGeometry x="539" y="150" width="30" height="25" as="geometry" />
        </mxCell>
        <mxCell id="qYzG8PUJJpeO185bwS53-59" value="1" style="rounded=0;whiteSpace=wrap;html=1;" parent="1" vertex="1">
          <mxGeometry x="569" y="150" width="30" height="25" as="geometry" />
        </mxCell>
        <mxCell id="qYzG8PUJJpeO185bwS53-60" value="&lt;b&gt;ADC Sample Buffer&lt;/b&gt;" style="text;strokeColor=none;align=center;fillColor=none;html=1;verticalAlign=middle;whiteSpace=wrap;rounded=0;" parent="1" vertex="1">
          <mxGeometry x="605" y="90" width="120" height="22" as="geometry" />
        </mxCell>
        <mxCell id="qYzG8PUJJpeO185bwS53-61" value="1" style="rounded=0;whiteSpace=wrap;html=1;" parent="1" vertex="1">
          <mxGeometry x="599" y="150" width="30" height="25" as="geometry" />
        </mxCell>
        <mxCell id="qYzG8PUJJpeO185bwS53-62" value="1" style="rounded=0;whiteSpace=wrap;html=1;" parent="1" vertex="1">
          <mxGeometry x="629" y="150" width="30" height="25" as="geometry" />
        </mxCell>
        <mxCell id="qYzG8PUJJpeO185bwS53-63" value="1" style="rounded=0;whiteSpace=wrap;html=1;" parent="1" vertex="1">
          <mxGeometry x="659" y="150" width="30" height="25" as="geometry" />
        </mxCell>
        <mxCell id="qYzG8PUJJpeO185bwS53-64" value="0" style="rounded=0;whiteSpace=wrap;html=1;" parent="1" vertex="1">
          <mxGeometry x="689" y="150" width="30" height="25" as="geometry" />
        </mxCell>
        <mxCell id="qYzG8PUJJpeO185bwS53-88" value="" style="edgeStyle=orthogonalEdgeStyle;rounded=0;orthogonalLoop=1;jettySize=auto;html=1;" parent="1" source="qYzG8PUJJpeO185bwS53-65" target="qYzG8PUJJpeO185bwS53-85" edge="1">
          <mxGeometry relative="1" as="geometry" />
        </mxCell>
        <mxCell id="qYzG8PUJJpeO185bwS53-65" value="Payload" style="rounded=0;whiteSpace=wrap;html=1;" parent="1" vertex="1">
          <mxGeometry x="719" y="150" width="70" height="25" as="geometry" />
        </mxCell>
        <mxCell id="qYzG8PUJJpeO185bwS53-102" style="edgeStyle=orthogonalEdgeStyle;rounded=0;orthogonalLoop=1;jettySize=auto;html=1;entryX=0;entryY=0.5;entryDx=0;entryDy=0;" parent="1" source="qYzG8PUJJpeO185bwS53-66" target="qYzG8PUJJpeO185bwS53-101" edge="1">
          <mxGeometry relative="1" as="geometry" />
        </mxCell>
        <mxCell id="qYzG8PUJJpeO185bwS53-66" value="CRC" style="rounded=0;whiteSpace=wrap;html=1;" parent="1" vertex="1">
          <mxGeometry x="789" y="150" width="70" height="25" as="geometry" />
        </mxCell>
        <mxCell id="qYzG8PUJJpeO185bwS53-67" value="" style="endArrow=classic;html=1;rounded=0;exitX=0.5;exitY=1;exitDx=0;exitDy=0;entryX=0.5;entryY=0;entryDx=0;entryDy=0;" parent="1" source="qYzG8PUJJpeO185bwS53-47" target="qYzG8PUJJpeO185bwS53-55" edge="1">
          <mxGeometry width="50" height="50" relative="1" as="geometry">
            <mxPoint x="490" y="230" as="sourcePoint" />
            <mxPoint x="540" y="180" as="targetPoint" />
            <Array as="points">
              <mxPoint x="830" y="130" />
              <mxPoint x="720" y="130" />
              <mxPoint x="465" y="130" />
            </Array>
          </mxGeometry>
        </mxCell>
        <mxCell id="qYzG8PUJJpeO185bwS53-85" value="&lt;b&gt;Hello World! This is FTL!&lt;/b&gt;" style="rounded=1;whiteSpace=wrap;html=1;fillColor=#d5e8d4;strokeColor=#82b366;" parent="1" vertex="1">
          <mxGeometry x="649" y="245" width="210" height="60" as="geometry" />
        </mxCell>
        <mxCell id="qYzG8PUJJpeO185bwS53-90" value="" style="edgeStyle=orthogonalEdgeStyle;rounded=0;orthogonalLoop=1;jettySize=auto;html=1;" parent="1" source="qYzG8PUJJpeO185bwS53-87" target="qYzG8PUJJpeO185bwS53-36" edge="1">
          <mxGeometry relative="1" as="geometry" />
        </mxCell>
        <mxCell id="qYzG8PUJJpeO185bwS53-93" value="" style="edgeStyle=orthogonalEdgeStyle;rounded=0;orthogonalLoop=1;jettySize=auto;html=1;" parent="1" source="qYzG8PUJJpeO185bwS53-87" target="qYzG8PUJJpeO185bwS53-14" edge="1">
          <mxGeometry relative="1" as="geometry">
            <Array as="points">
              <mxPoint x="340" y="190" />
              <mxPoint x="340" y="190" />
            </Array>
          </mxGeometry>
        </mxCell>
        <mxCell id="qYzG8PUJJpeO185bwS53-87" value="&lt;b&gt;ADC ISR Timer&lt;/b&gt;&lt;div&gt;&lt;b&gt;40k Hz&lt;/b&gt;&lt;/div&gt;" style="rounded=1;whiteSpace=wrap;html=1;fillColor=#f5f5f5;fontColor=#333333;strokeColor=#666666;" parent="1" vertex="1">
          <mxGeometry x="350" y="150" width="80" height="80" as="geometry" />
        </mxCell>
        <mxCell id="qYzG8PUJJpeO185bwS53-91" value="LEFT" style="rounded=0;whiteSpace=wrap;html=1;" parent="1" vertex="1">
          <mxGeometry x="360" y="280" width="60" height="40" as="geometry" />
        </mxCell>
        <mxCell id="qYzG8PUJJpeO185bwS53-92" value="&lt;b&gt;Message Buffer&lt;/b&gt;" style="text;strokeColor=none;align=center;fillColor=none;html=1;verticalAlign=middle;whiteSpace=wrap;rounded=0;" parent="1" vertex="1">
          <mxGeometry x="580" y="170" width="100" height="30" as="geometry" />
        </mxCell>
        <mxCell id="qYzG8PUJJpeO185bwS53-103" value="" style="edgeStyle=orthogonalEdgeStyle;rounded=0;orthogonalLoop=1;jettySize=auto;html=1;" parent="1" source="qYzG8PUJJpeO185bwS53-94" target="qYzG8PUJJpeO185bwS53-99" edge="1">
          <mxGeometry relative="1" as="geometry">
            <Array as="points">
              <mxPoint x="510" y="300" />
            </Array>
          </mxGeometry>
        </mxCell>
        <mxCell id="qYzG8PUJJpeO185bwS53-94" value="MID&lt;div&gt;LEFT&lt;/div&gt;" style="rounded=0;whiteSpace=wrap;html=1;" parent="1" vertex="1">
          <mxGeometry x="420" y="280" width="60" height="40" as="geometry" />
        </mxCell>
        <mxCell id="qYzG8PUJJpeO185bwS53-95" value="MID" style="rounded=0;whiteSpace=wrap;html=1;" parent="1" vertex="1">
          <mxGeometry x="480" y="280" width="60" height="40" as="geometry" />
        </mxCell>
        <mxCell id="qYzG8PUJJpeO185bwS53-105" value="" style="edgeStyle=orthogonalEdgeStyle;rounded=0;orthogonalLoop=1;jettySize=auto;html=1;" parent="1" source="qYzG8PUJJpeO185bwS53-99" target="qYzG8PUJJpeO185bwS53-100" edge="1">
          <mxGeometry relative="1" as="geometry">
            <Array as="points">
              <mxPoint x="660" y="380" />
              <mxPoint x="660" y="380" />
            </Array>
          </mxGeometry>
        </mxCell>
        <mxCell id="qYzG8PUJJpeO185bwS53-99" value="&lt;b&gt;PWM Motor Speed Control&lt;/b&gt;" style="rounded=1;whiteSpace=wrap;html=1;fillColor=#fff2cc;strokeColor=#d6b656;" parent="1" vertex="1">
          <mxGeometry x="419" y="360" width="180" height="80" as="geometry" />
        </mxCell>
        <mxCell id="qYzG8PUJJpeO185bwS53-100" value="&lt;b&gt;Servo Motor&lt;/b&gt;" style="rounded=1;whiteSpace=wrap;html=1;fillColor=#d5e8d4;strokeColor=#82b366;" parent="1" vertex="1">
          <mxGeometry x="710" y="340" width="120" height="120" as="geometry" />
        </mxCell>
        <mxCell id="qYzG8PUJJpeO185bwS53-101" value="&lt;b&gt;CRC&lt;/b&gt;&lt;div&gt;&lt;b&gt;Checker&lt;/b&gt;&lt;/div&gt;" style="rounded=1;whiteSpace=wrap;html=1;fillColor=#dae8fc;strokeColor=#6c8ebf;" parent="1" vertex="1">
          <mxGeometry x="910" y="160" width="90" height="85" as="geometry" />
        </mxCell>
        <mxCell id="qYzG8PUJJpeO185bwS53-104" value="&lt;b&gt;Posisition Buffer&lt;/b&gt;" style="text;strokeColor=none;align=center;fillColor=none;html=1;verticalAlign=middle;whiteSpace=wrap;rounded=0;" parent="1" vertex="1">
          <mxGeometry x="380" y="320" width="100" height="24" as="geometry" />
        </mxCell>
        <mxCell id="qYzG8PUJJpeO185bwS53-106" value="" style="edgeStyle=orthogonalEdgeStyle;rounded=0;orthogonalLoop=1;jettySize=auto;html=1;" parent="1" edge="1">
          <mxGeometry relative="1" as="geometry">
            <mxPoint x="599" y="420" as="sourcePoint" />
            <mxPoint x="710" y="420" as="targetPoint" />
          </mxGeometry>
        </mxCell>
        <mxCell id="qYzG8PUJJpeO185bwS53-109" value="&lt;b&gt;Speed&lt;/b&gt;" style="text;strokeColor=none;align=center;fillColor=none;html=1;verticalAlign=middle;whiteSpace=wrap;rounded=0;" parent="1" vertex="1">
          <mxGeometry x="625" y="350" width="60" height="30" as="geometry" />
        </mxCell>
        <mxCell id="qYzG8PUJJpeO185bwS53-112" value="&lt;b&gt;Direction&lt;/b&gt;" style="text;strokeColor=none;align=center;fillColor=none;html=1;verticalAlign=middle;whiteSpace=wrap;rounded=0;" parent="1" vertex="1">
          <mxGeometry x="625" y="395" width="60" height="30" as="geometry" />
        </mxCell>
        <mxCell id="qYzG8PUJJpeO185bwS53-113" value="&lt;b&gt;Left Photodiode&lt;/b&gt;" style="text;strokeColor=none;align=center;fillColor=none;html=1;verticalAlign=middle;whiteSpace=wrap;rounded=0;" parent="1" vertex="1">
          <mxGeometry x="40" y="125" width="120" height="30" as="geometry" />
        </mxCell>
        <mxCell id="qYzG8PUJJpeO185bwS53-114" value="&lt;b&gt;Middle Photodiode&lt;/b&gt;" style="text;strokeColor=none;align=center;fillColor=none;html=1;verticalAlign=middle;whiteSpace=wrap;rounded=0;" parent="1" vertex="1">
          <mxGeometry x="40" y="210" width="120" height="30" as="geometry" />
        </mxCell>
        <mxCell id="qYzG8PUJJpeO185bwS53-115" value="&lt;b&gt;Right Photodiode&lt;/b&gt;" style="text;strokeColor=none;align=center;fillColor=none;html=1;verticalAlign=middle;whiteSpace=wrap;rounded=0;" parent="1" vertex="1">
          <mxGeometry x="40" y="290" width="120" height="30" as="geometry" />
        </mxCell>
        <mxCell id="qYzG8PUJJpeO185bwS53-120" style="edgeStyle=orthogonalEdgeStyle;rounded=0;orthogonalLoop=1;jettySize=auto;html=1;entryX=0.25;entryY=1;entryDx=0;entryDy=0;" parent="1" source="qYzG8PUJJpeO185bwS53-116" target="qYzG8PUJJpeO185bwS53-99" edge="1">
          <mxGeometry relative="1" as="geometry" />
        </mxCell>
        <mxCell id="qYzG8PUJJpeO185bwS53-116" value="" style="triangle;whiteSpace=wrap;html=1;fillColor=#f8cecc;strokeColor=#b85450;" parent="1" vertex="1">
          <mxGeometry x="300" y="470" width="60" height="60" as="geometry" />
        </mxCell>
        <mxCell id="qYzG8PUJJpeO185bwS53-117" value="" style="triangle;whiteSpace=wrap;html=1;direction=west;fillColor=#f8cecc;strokeColor=#b85450;" parent="1" vertex="1">
          <mxGeometry x="160" y="470" width="60" height="60" as="geometry" />
        </mxCell>
        <mxCell id="qYzG8PUJJpeO185bwS53-118" value="&lt;b&gt;Right Microswitch&lt;/b&gt;" style="text;strokeColor=none;align=center;fillColor=none;html=1;verticalAlign=middle;whiteSpace=wrap;rounded=0;" parent="1" vertex="1">
          <mxGeometry x="120" y="430" width="120" height="30" as="geometry" />
        </mxCell>
        <mxCell id="qYzG8PUJJpeO185bwS53-119" value="&lt;b&gt;Left Microswitch&lt;/b&gt;" style="text;strokeColor=none;align=center;fillColor=none;html=1;verticalAlign=middle;whiteSpace=wrap;rounded=0;" parent="1" vertex="1">
          <mxGeometry x="280" y="430" width="120" height="30" as="geometry" />
        </mxCell>
        <mxCell id="qYzG8PUJJpeO185bwS53-122" style="edgeStyle=orthogonalEdgeStyle;rounded=0;orthogonalLoop=1;jettySize=auto;html=1;entryX=0.437;entryY=0.996;entryDx=0;entryDy=0;entryPerimeter=0;" parent="1" source="qYzG8PUJJpeO185bwS53-117" target="qYzG8PUJJpeO185bwS53-99" edge="1">
          <mxGeometry relative="1" as="geometry">
            <Array as="points">
              <mxPoint x="190" y="560" />
              <mxPoint x="498" y="560" />
            </Array>
          </mxGeometry>
        </mxCell>
        <mxCell id="qYzG8PUJJpeO185bwS53-126" style="edgeStyle=orthogonalEdgeStyle;rounded=0;orthogonalLoop=1;jettySize=auto;html=1;entryX=0.75;entryY=1;entryDx=0;entryDy=0;" parent="1" source="qYzG8PUJJpeO185bwS53-123" target="qYzG8PUJJpeO185bwS53-99" edge="1">
          <mxGeometry relative="1" as="geometry" />
        </mxCell>
        <mxCell id="qYzG8PUJJpeO185bwS53-123" value="&lt;b&gt;Motor Control ISR Timer&lt;/b&gt;&lt;div&gt;&lt;b&gt;80 Hz&lt;/b&gt;&lt;/div&gt;" style="rounded=1;whiteSpace=wrap;html=1;fillColor=#f5f5f5;fontColor=#333333;strokeColor=#666666;" parent="1" vertex="1">
          <mxGeometry x="549" y="480" width="80" height="80" as="geometry" />
        </mxCell>
        <mxCell id="qYzG8PUJJpeO185bwS53-128" value="" style="rhombus;whiteSpace=wrap;html=1;fillColor=#f8cecc;strokeColor=#b85450;" parent="1" vertex="1">
          <mxGeometry x="900" y="325" width="41" height="40" as="geometry" />
        </mxCell>
        <mxCell id="qYzG8PUJJpeO185bwS53-129" value="" style="rhombus;whiteSpace=wrap;html=1;fillColor=#d5e8d4;strokeColor=#82b366;" parent="1" vertex="1">
          <mxGeometry x="900" y="375" width="41" height="40" as="geometry" />
        </mxCell>
        <mxCell id="qYzG8PUJJpeO185bwS53-130" value="" style="rhombus;whiteSpace=wrap;html=1;fillColor=#fff2cc;strokeColor=#d6b656;" parent="1" vertex="1">
          <mxGeometry x="900" y="425" width="41" height="40" as="geometry" />
        </mxCell>
        <mxCell id="qYzG8PUJJpeO185bwS53-131" value="" style="rhombus;whiteSpace=wrap;html=1;fillColor=#dae8fc;strokeColor=#6c8ebf;" parent="1" vertex="1">
          <mxGeometry x="900" y="475" width="41" height="40" as="geometry" />
        </mxCell>
        <mxCell id="qYzG8PUJJpeO185bwS53-132" value="" style="rhombus;whiteSpace=wrap;html=1;fillColor=#f5f5f5;strokeColor=#666666;fontColor=#333333;" parent="1" vertex="1">
          <mxGeometry x="900" y="525" width="41" height="40" as="geometry" />
        </mxCell>
        <mxCell id="qYzG8PUJJpeO185bwS53-133" value="&lt;b&gt;Inputs&lt;/b&gt;" style="text;strokeColor=none;align=left;fillColor=none;html=1;verticalAlign=middle;whiteSpace=wrap;rounded=0;" parent="1" vertex="1">
          <mxGeometry x="960" y="330" width="60" height="30" as="geometry" />
        </mxCell>
        <mxCell id="qYzG8PUJJpeO185bwS53-135" value="&lt;b&gt;Outputs&lt;/b&gt;" style="text;strokeColor=none;align=left;fillColor=none;html=1;verticalAlign=middle;whiteSpace=wrap;rounded=0;" parent="1" vertex="1">
          <mxGeometry x="960" y="380" width="60" height="30" as="geometry" />
        </mxCell>
        <mxCell id="qYzG8PUJJpeO185bwS53-137" value="&lt;b&gt;Position Processing&lt;/b&gt;" style="text;strokeColor=none;align=left;fillColor=none;html=1;verticalAlign=middle;whiteSpace=wrap;rounded=0;" parent="1" vertex="1">
          <mxGeometry x="960" y="430" width="60" height="30" as="geometry" />
        </mxCell>
        <mxCell id="qYzG8PUJJpeO185bwS53-138" value="&lt;b&gt;Message Processing&lt;/b&gt;" style="text;strokeColor=none;align=left;fillColor=none;html=1;verticalAlign=middle;whiteSpace=wrap;rounded=0;" parent="1" vertex="1">
          <mxGeometry x="960" y="480" width="60" height="30" as="geometry" />
        </mxCell>
        <mxCell id="qYzG8PUJJpeO185bwS53-139" value="&lt;b&gt;Interrupt Service Timers&lt;/b&gt;" style="text;strokeColor=none;align=left;fillColor=none;html=1;verticalAlign=middle;whiteSpace=wrap;rounded=0;" parent="1" vertex="1">
          <mxGeometry x="960" y="530" width="80" height="30" as="geometry" />
        </mxCell>
        <mxCell id="qYzG8PUJJpeO185bwS53-141" value="&lt;b&gt;Key&lt;/b&gt;" style="text;strokeColor=none;align=center;fillColor=none;html=1;verticalAlign=middle;whiteSpace=wrap;rounded=0;" parent="1" vertex="1">
          <mxGeometry x="940" y="295" width="60" height="30" as="geometry" />
        </mxCell>
      </root>
    </mxGraphModel>
  </diagram>
</mxfile>
